<svg xmlns="http://www.w3.org/2000/svg" viewBox="0 0 256 256" role="img" aria-label="Investor Council">
  <defs>
    <linearGradient id="bg" x1="24" y1="20" x2="222" y2="236" gradientUnits="userSpaceOnUse">
      <stop offset="0%" stop-color="#102537"/>
      <stop offset="55%" stop-color="#12384b"/>
      <stop offset="100%" stop-color="#0b1824"/>
    </linearGradient>
    <linearGradient id="gold" x1="64" y1="48" x2="196" y2="206" gradientUnits="userSpaceOnUse">
      <stop offset="0%" stop-color="#f6df9d"/>
      <stop offset="100%" stop-color="#c79d47"/>
    </linearGradient>
    <linearGradient id="mint" x1="78" y1="170" x2="190" y2="86" gradientUnits="userSpaceOnUse">
      <stop offset="0%" stop-color="#7ce8ca"/>
      <stop offset="100%" stop-color="#dffaf1"/>
    </linearGradient>
    <filter id="softGlow" x="-20%" y="-20%" width="140%" height="140%">
      <feGaussianBlur stdDeviation="4"/>
    </filter>
  </defs>
  <rect width="256" height="256" rx="56" fill="url(#bg)"/>
  <path d="M40 168c22-54 63-86 124-94 18-3 33-2 52 1" fill="none" stroke="#27475f" stroke-width="10" stroke-linecap="round" opacity="0.55"/>
  <circle cx="128" cy="128" r="84" fill="none" stroke="url(#gold)" stroke-width="6"/>
  <circle cx="128" cy="128" r="98" fill="none" stroke="#264257" stroke-width="2" opacity="0.65"/>
  <path d="M66 166L98 142L122 150L154 108L186 88" fill="none" stroke="#8bf0d4" stroke-width="10" stroke-linecap="round" stroke-linejoin="round" opacity="0.18" filter="url(#softGlow)"/>
  <path d="M66 166L98 142L122 150L154 108L186 88" fill="none" stroke="url(#mint)" stroke-width="6" stroke-linecap="round" stroke-linejoin="round"/>
  <g fill="#eff6f2">
    <rect x="82" y="120" width="18" height="42" rx="8"/>
    <rect x="118" y="104" width="18" height="58" rx="8"/>
    <rect x="154" y="86" width="18" height="76" rx="8"/>
  </g>
  <g stroke="url(#gold)" stroke-width="4" stroke-linecap="round">
    <line x1="91" y1="108" x2="91" y2="120"/>
    <line x1="91" y1="162" x2="91" y2="174"/>
    <line x1="127" y1="92" x2="127" y2="104"/>
    <line x1="127" y1="162" x2="127" y2="176"/>
    <line x1="163" y1="72" x2="163" y2="86"/>
    <line x1="163" y1="162" x2="163" y2="178"/>
  </g>
  <g fill="url(#gold)">
    <circle cx="90" cy="190" r="7"/>
    <circle cx="128" cy="196" r="8"/>
    <circle cx="166" cy="190" r="7"/>
  </g>
  <path d="M80 204c10-9 23-14 48-14s38 5 48 14" fill="none" stroke="#d3b067" stroke-width="5" stroke-linecap="round" opacity="0.92"/>
</svg>
